<svg width="154" height="153" viewBox="0 0 154 153" fill="none" xmlns="http://www.w3.org/2000/svg">
<rect x="0.649994" width="153" height="153" rx="75" fill="black" fill-opacity="0.1"/>
<path d="M104.179 70.4141C84.1653 67.6649 66.907 82.5252 68.0666 102.236M60.4972 64.3888C60.4972 65.9948 61.1352 67.5351 62.2708 68.6707C63.4065 69.8064 64.9467 70.4444 66.5527 70.4444C68.1588 70.4444 69.699 69.8064 70.8347 68.6707C71.9703 67.5351 72.6083 65.9948 72.6083 64.3888C72.6083 62.7828 71.9703 61.2425 70.8347 60.1069C69.699 58.9712 68.1588 58.3333 66.5527 58.3333C64.9467 58.3333 63.4065 58.9712 62.2708 60.1069C61.1352 61.2425 60.4972 62.7828 60.4972 64.3888Z" stroke="white" stroke-width="4.54167" stroke-linecap="round" stroke-linejoin="round"/>
<path d="M49.9 79.7277C58.3172 78.562 65.8715 82.6283 69.956 89.1138" stroke="white" stroke-width="4.54167" stroke-linecap="round" stroke-linejoin="round"/>
<path d="M49.9 68.6278C49.9 61.8456 49.9 58.4544 51.2201 55.8627C52.3812 53.5839 54.2339 51.7312 56.5127 50.5701C59.1044 49.25 62.4955 49.25 69.2778 49.25H85.0222C91.8044 49.25 95.1955 49.25 97.7873 50.5701C100.066 51.7312 101.919 53.5839 103.08 55.8627C104.4 58.4544 104.4 61.8456 104.4 68.6278V84.3722C104.4 91.1544 104.4 94.5456 103.08 97.1373C101.919 99.4161 100.066 101.269 97.7873 102.43C95.1955 103.75 91.8044 103.75 85.0222 103.75H69.2778C62.4955 103.75 59.1044 103.75 56.5127 102.43C54.2339 101.269 52.3812 99.4161 51.2201 97.1373C49.9 94.5456 49.9 91.1544 49.9 84.3722V68.6278Z" stroke="white" stroke-width="4.54167" stroke-linecap="round" stroke-linejoin="round"/>
</svg>
